<?xml version="1.0" encoding="UTF-8"?>
<svg width="1380px" height="492px" viewBox="0 0 1380 492" version="1.1" xmlns="http://www.w3.org/2000/svg" xmlns:xlink="http://www.w3.org/1999/xlink">
    <title>Untitled</title>
    <g id="Page-1" stroke="none" stroke-width="1" fill="none" fill-rule="evenodd">
        <g id="clouds" fill="#FFFFFF" fill-rule="nonzero">
            <path d="M341.72,361.48 C335.247,361.48 330,366.83 330,373.429 L353.441,373.429 C353.441,366.83 348.194,361.48 341.72,361.48 Z" id="Path"></path>
            <path d="M387.683,367.455 C378.672,367.455 371.366,374.862 371.366,384 L404,384 C404,374.862 396.695,367.455 387.683,367.455 Z" id="Path"></path>
            <path d="M363.093,359.182 C349.386,359.182 338.273,370.293 338.273,384 L387.913,384 C387.913,370.293 376.801,359.182 363.093,359.182 Z" id="Path"></path>
            <path d="M1282.01,457.459 C1263.23,457.459 1248,472.924 1248,492 L1316.02,492 C1316.02,472.924 1300.79,457.459 1282.01,457.459 Z" id="Path"></path>
            <path d="M1258.68,428 C1245.6,428 1235,438.781 1235,452.081 L1282.37,452.081 C1282.37,438.781 1271.76,428 1258.68,428 Z" id="Path"></path>
            <path d="M1213.73,440.189 C1185.16,440.189 1162,463.386 1162,492 L1265.47,492 C1265.47,463.386 1242.31,440.189 1213.73,440.189 Z" id="Path"></path>
            <path d="M1339.91,16 C1318.42,16 1301,33.4609 1301,55 L1378.81,55 C1378.81,33.4609 1361.39,16 1339.91,16 Z" id="Path"></path>
            <path d="M1356.5,49 C1344.07,49 1334,59.2975 1334,72 L1379,72 C1379,59.2975 1368.93,49 1356.5,49 Z" id="Path"></path>
            <path d="M352.5,55 C340.074,55 330,65.297 330,78 L375,78 C375,65.297 364.926,55 352.5,55 Z" id="Path"></path>
            <path d="M152.000008,215 C152.000008,173.026 118.6452,139 77.5,139 C36.9286125,140.979692 11.1459724,166.313025 0.152079542,215 C13.0060985,215 38.7887387,215 77.5,215 L152.000008,215 Z" id="Path"></path>
            <path d="M394.112,349 C388.651,349 384.224,353.559 384.224,359.182 L404,359.182 C404,353.559 399.573,349 394.112,349 Z" id="Path"></path>
            <path d="M1300.5,0 C1291.94,0 1285,7.1634 1285,16 L1316,16 C1316,7.1634 1309.06,0 1300.5,0 Z" id="Path"></path>
        </g>
    </g>
</svg>